# xmcd
#
# Track frame offsets:
#	183
#	27398
#	61620
#	95388
#	116225
#	143470
#	179053
#	203603
#	225450
#	251223
#	267560
#
# Disc length: 4062 seconds
#
# Revision: 3
# Processed by: cddbd v1.5.2PL0 Copyright (c) Steve Scherf et al.
# Submitted via: audiograbber 1.83.01
#
DISCID=990fdc0b
DTITLE=Hooker, John Lee - The cream
DYEAR=1977
DGENRE=Blues
TTITLE0=Hey hey
TTITLE1=Rock steady
TTITLE2=Tupelo
TTITLE3=You know it ain't right
TTITLE4=She's gone
TTITLE5=T.B. sheets
TTITLE6=Sugar mama
TTITLE7=One room country shack
TTITLE8=Drug store woman
TTITLE9=I want you to roll me
TTITLE10=Bar room drinking
EXTD=
EXTT0=
EXTT1=
EXTT2=
EXTT3=
EXTT4=
EXTT5=
EXTT6=
EXTT7=
EXTT8=
EXTT9=
EXTT10=
PLAYORDER=
